<svg xmlns="http://www.w3.org/2000/svg" height="194.472" width="181.3"><path d="M100.702 13.212l-61.97 59.747 14.8 78.235 30.5-.364 36.946-.44 30.5-.363 12.742-78.568z" fill="#fff8e9"/><path d="M99.98 11.204a1.031 1.031 0 011.4-.017l64.4 59.059 10.772 2.3-52.881-48.709-.007-.006L100.571 2.56l-74.13 71.774 10.708-2.558z" fill="#94a727"/><path d="M100.702 13.212l-61.97 59.747.9 4.745 61.536-58.657 62.507 55.788.547-3.372z" fill="#eae4c9"/><g stroke="#3e4147" stroke-linecap="round" stroke-linejoin="round" stroke-width="3"><path d="M102.512 151.559l49.813-.593 12.961-79.85-64.6-59.243-63.031 60.763 15.047 79.523z" fill="none"/><path d="M165.286 71.118l14.515 3.1-78.949-72.72-.6.007-77.027 74.578 14.429-3.448" fill="none"/><path d="M121.675 68.396c-10.036-16.22-44.8.716-32.856 18.232 6.278 9.209 21.459 5.737 29.908 12.774 9.419 7.845 5.034 20.194-5.1 25.276-13.852 6.945-24.322.236-27.726-12.2" fill="none"/><path d="M99.526 53.611c1.077 20.04.463 40.112 2.561 60.054.191 1.819.119 11.618.339 21.113M110.361 52.492s1.747 30.743 1.755 43.513c.008 11.82 1.917 36.251 1.917 36.251" fill="none"/><path d="M1.502 109.883s8.9 34.222 19.907 47.744c6.99 8.584 16.171 17.437 25.592 23.214 5.359 3.285 23.41 12.967 29.627 12.076-4.12-6.491 7.384-4.029 10.279-3.509.692-2.364.1-5.421 2.586-6.413 1.05-.418 6.733 1.615 8.8 1.445.454-1.965 1.056-3.837 1.655-5.781 3.706.078 7.491 1.683 11.194 1.814.75-2.165.888-4.625 1.535-6.766 3.116 1.15 6.5 3.023 9.956 3.21-1.419-9.308 6.9-3.153 12.173-5.39-6.055-3.7-13.361-5.27-19.6-9.266-9.75-6.249-17.564-14.171-26.5-21.481-9.011-7.367-14.662-15.233-20.364-25.463-3.307-5.932-4.459-15.934-9.007-20.756-.008-.002-13.847 6.92-57.833 15.322z" fill="#fff"/><path d="M1.502 109.883s8.9 34.222 19.907 47.744c6.99 8.584 16.171 17.437 25.592 23.214 5.359 3.285 23.41 12.967 29.627 12.076-4.12-6.491 7.384-4.029 10.279-3.509.692-2.364.1-5.421 2.586-6.413 1.05-.418 6.733 1.615 8.8 1.445.454-1.965 1.056-3.837 1.655-5.781 3.706.078 7.491 1.683 11.194 1.814.75-2.165.888-4.625 1.535-6.766 3.116 1.15 6.5 3.023 9.956 3.21-1.419-9.308 6.9-3.153 12.173-5.39-6.055-3.7-13.361-5.27-19.6-9.266-9.75-6.249-17.564-14.171-26.5-21.481-9.011-7.367-14.662-15.233-20.364-25.463-3.307-5.932-4.459-15.934-9.007-20.756-.008-.002-13.847 6.92-57.833 15.322z" fill="none"/><path d="M15.339 122.239c1.8-2.483 4.21-1.539 7.256-2.919 1.169-.529 2-2.4 3.568-3.047 1.316-.541 4.073-.384 5.633-.653.718-.124.685-1.547 1.424-1.731s2.111.624 2.493.479c1.383-.523 3.833-2.23 5.341-2.688 4.6-1.4 5.415.921 9.206-4.06 2.068 2.128 4.964 2.442 6.1-.7M18.802 133.607c1.206 2.627 2.225 1.505 3.983 1.4a31.945 31.945 0 013.533-2.729c1.454-.608 2.952.671 4.626-.191 1.782-.917 3.841-2.941 5.4-3.915 2.15-1.343 4.179-1.679 6.021-3.886.621.888 2.151 1.487 2.768 2.446 2.874-1.051 4.075-3.8 7.426-5.038 3.229-1.2 5.781-.5 8.255-3.413M27.202 145.959a3.548 3.548 0 002.363 1.481c.217-3.513 1.883-2.894 4.31-3.648.942-.292 2.537 1.173 3.279.8.712-.354 1.754-2.559 1.914-2.614-1.366.469 2.989-2.3 2.309-1.926.608-.337 2.019 1.334 2.844.979 1.863-.8 2.579-2.985 4.332-4.014 2.1-1.231 6.6-1.545 8.994-2.53 2.571-1.057 9.739-1.595 10.678-4.348M35.602 159.308a2.1 2.1 0 002.091.691 5.906 5.906 0 011.792-4.742c4.325 1.516 5.8 3.731 7.907-1.52 4.329 2.826 3.358-.682 5.732-1.825a39.131 39.131 0 015.741-2.342c1.873-.544 6.655-1.83 7.428-3.634 2.8 2.774 8.62-1.733 11.815-3.432M46.971 171.665c2.683-.362 3.141-2.758 5.451-3.567.864-.3 1.679 1.866 2.663 1.522 1.027-.358 1.469-1.586 2.5-1.948 3.795-1.334 6.789-4.056 10.937-2.914.147-4.22 5.851-4.348 9.07-5.931 4.188-2.06 7.4-1.755 11.886-2.979M63.775 178.09c3.7 3.26 7.138-2.725 10.244-4.472.961-.541 4.223-2.295 5.1-2.657.558-.23.756-1.44 1.436-1.751.849-.388 1.763 1.221 2.5.923 2.638-1.073 5.016-2.276 7.824-3.484.95-.409 2.4-1.849 3.518-2.385 1.258-.6 3.209-.821 4.474-1.5" fill="none"/></g></svg>
